<svg width="30" height="36" viewBox="0 0 30 36" fill="none" xmlns="http://www.w3.org/2000/svg">
<g clip-path="url(#clip0_27_1223)">
<path d="M22.6672 21.7962C22.6672 25.484 22.6323 29.1767 22.6822 32.8644C22.7122 35.0288 21.7338 36.0148 19.5325 36C14.0566 35.9605 8.57573 35.9408 3.09487 36C0.84362 36.0246 -0.00995691 35.014 0.00501813 32.8644C0.0499433 25.3213 0.0349682 17.7831 2.64486e-05 10.2399C-0.00995691 8.19391 0.833637 7.25225 2.98006 7.2769C8.54079 7.34099 14.1015 7.3262 19.6623 7.28676C21.7438 7.27197 22.7072 8.15447 22.6822 10.2399C22.6323 14.0904 22.6672 17.9458 22.6672 21.8011V21.7962Z" fill="black"/>
<path d="M7.6223 5.33935C6.91348 0.724727 7.49751 0.0295752 11.7454 0.0295752C16.7271 0.0295752 21.7088 0.0887371 26.6905 0.00492442C29.0466 -0.0345168 30.01 0.976165 30 3.23418C29.9651 10.2054 29.99 17.1767 29.99 24.1479C29.99 28.659 29.5408 29.0435 24.604 28.4963C24.604 23.5612 24.604 18.5867 24.604 13.6072C24.604 5.63516 24.3095 5.33935 16.193 5.33935C13.3777 5.33935 10.5674 5.33935 7.6223 5.33935Z" fill="black"/>
</g>
<defs>
<clipPath id="clip0_27_1223">
<rect width="30" height="36" fill="white"/>
</clipPath>
</defs>
</svg>
