<svg width="37" height="36" viewBox="0 0 37 36" fill="none" xmlns="http://www.w3.org/2000/svg">
<path d="M36.5 17.9888C36.4921 27.9809 28.4822 35.9984 18.5111 36C8.53058 36 0.492053 27.9697 0.500006 18.0095C0.509549 7.98724 8.54808 -0.0254885 18.5716 -3.10598e-05C28.5028 0.0254264 36.5095 8.05884 36.5016 17.9888H36.5ZM16.3035 29.4749C18.5827 29.4749 20.8619 29.4988 23.1412 29.467C24.8033 29.4431 25.6812 27.8902 24.8923 26.4327C23.9189 24.6316 22.4032 23.4892 20.4564 22.9451C17.6363 22.1575 14.7941 22.1829 11.982 22.9769C10.1529 23.494 8.70872 24.568 7.76235 26.253C6.82712 27.9172 7.71146 29.4606 9.62327 29.4717C11.85 29.4829 14.0752 29.4749 16.3019 29.4733L16.3035 29.4749ZM16.3003 21.2108C19.3462 21.2267 21.8306 18.7701 21.8401 15.7311C21.8497 12.7 19.3653 10.2084 16.3353 10.2116C13.334 10.2148 10.8639 12.6666 10.8432 15.6627C10.8225 18.7255 13.2529 21.1965 16.3003 21.2108ZM25.0021 11.171C25.0021 11.9077 25.0116 12.5139 24.9989 13.1201C24.9846 13.7581 25.3695 13.9475 25.9119 13.9491C26.4479 13.9522 26.8503 13.7884 26.8391 13.1408C26.828 12.5123 26.836 11.8838 26.836 11.171C27.5596 11.171 28.1879 11.1678 28.8146 11.171C29.4444 11.1758 29.6385 10.7876 29.6401 10.245C29.6416 9.69766 29.4412 9.31898 28.813 9.32376C28.1847 9.32853 27.5565 9.32376 26.8391 9.32376C26.8391 8.61095 26.8296 7.98406 26.8423 7.35558C26.855 6.71914 26.4765 6.52662 25.9294 6.52821C25.3918 6.52821 24.9925 6.69687 25.0005 7.33967C25.01 7.96815 25.0021 8.59822 25.0021 9.32535C24.3818 9.32535 23.8299 9.35081 23.2827 9.31898C22.6131 9.27921 22.2012 9.494 22.2028 10.2291C22.2028 10.9339 22.5495 11.2235 23.2509 11.1758C23.798 11.1376 24.35 11.1678 25.0005 11.1678L25.0021 11.171Z" fill="#727886"/>
</svg>
