<svg width="37" height="36" viewBox="0 0 37 36" fill="none" xmlns="http://www.w3.org/2000/svg">
<path d="M18.4503 36C8.51238 35.9668 0.482424 27.912 0.484497 17.9803C0.486571 8.02996 8.59741 0 18.6017 0C28.4919 0 36.7043 8.32444 36.5135 18.4905C36.3352 28.0489 28.2306 36.0332 18.4503 36ZM21.3848 18.0985C21.3848 20.359 21.4014 22.5283 21.3765 24.6975C21.3682 25.4876 21.6689 25.8278 22.4798 25.8049C23.722 25.7676 24.9705 25.7386 26.2086 25.8132C27.2434 25.8755 27.5234 25.4379 27.513 24.4777C27.4778 21.0579 27.5317 17.636 27.4653 14.2183C27.4549 13.6936 27.1128 13.0176 26.7021 12.6858C24.3151 10.7509 21.8472 8.91757 19.4457 7.0034C18.7883 6.47871 18.3155 6.44761 17.6518 6.9951C15.3084 8.93001 12.9069 10.7944 10.5655 12.7314C10.244 12.9989 9.95371 13.5174 9.94956 13.9218C9.90186 17.5489 9.92882 21.1761 9.91638 24.8033C9.9143 25.498 10.1818 25.8174 10.8973 25.8008C11.9674 25.7738 13.0396 25.7946 14.1097 25.7946C15.3347 25.7946 15.9471 25.1987 15.9471 24.0069C15.9471 22.0492 15.9471 20.0936 15.9471 18.0985H21.3848Z" fill="#727886"/>
</svg>
