<svg width="34" height="36" viewBox="0 0 34 36" fill="none" xmlns="http://www.w3.org/2000/svg">
<g clip-path="url(#clip0_27_1152)">
<path d="M17.5884 -5.76337e-06C18.6818 0.390835 19.5592 0.998443 19.9455 2.17918C19.9946 2.33026 20.3759 2.44521 20.6067 2.45014C21.7787 2.47641 22.9507 2.45506 24.1226 2.46492C25.365 2.47477 26.1621 3.21047 26.1556 4.32223C26.1507 5.40607 25.3961 6.12206 24.1701 6.12535C19.4004 6.13848 14.6291 6.13848 9.85935 6.12535C8.63173 6.12206 7.87879 5.40607 7.87388 4.32223C7.86733 3.20883 8.66447 2.47313 9.90682 2.46492C11.0788 2.45506 12.2507 2.47805 13.4227 2.45014C13.6535 2.44521 14.0349 2.33026 14.084 2.17918C14.4686 0.995159 15.3525 0.394119 16.4427 -0.00164795H17.5884V-5.76337e-06Z" fill="#727886"/>
<path d="M27.0869 3.99378C28.3685 3.99378 29.5716 3.89853 30.7518 4.01677C32.3559 4.17771 33.4804 5.46846 33.4853 7.08766C33.5033 15.6779 33.5049 24.2699 33.4836 32.8601C33.4787 34.5565 32.184 35.8391 30.4948 35.9606C30.2509 35.9786 30.0037 35.9737 29.7582 35.9737C21.2778 35.9737 12.7958 35.9359 4.31543 36.0016C2.18428 36.0164 0.473802 34.7651 0.499992 32.1655C0.58347 24.0137 0.529454 15.8602 0.531091 7.70676C0.531091 5.14988 1.72761 3.96094 4.29087 3.9593C5.13384 3.9593 5.97517 3.9593 6.87542 3.9593C6.90161 4.20727 6.93598 4.41418 6.94253 4.61945C6.98018 6.19924 7.91808 7.17305 9.50579 7.17798C14.4965 7.1944 19.4871 7.19276 24.4762 7.17798C26.1114 7.17305 27.0509 6.21402 27.0869 4.58168C27.0902 4.41911 27.0869 4.25489 27.0869 3.9905V3.99378ZM19.533 22.1793C21.5741 22.1793 23.6168 22.1859 25.658 22.1728C25.9755 22.1711 26.316 22.1416 26.6073 22.025C27.3112 21.7442 27.6729 21.0315 27.5469 20.3007C27.4045 19.4747 26.717 18.9541 25.6678 18.9508C21.5577 18.9393 17.446 18.9377 13.336 18.9508C12.1607 18.9541 11.3881 19.652 11.416 20.6143C11.4438 21.5734 12.1673 22.1744 13.3245 22.1777C15.3934 22.1826 17.4624 22.1777 19.5313 22.1777L19.533 22.1793ZM19.4839 15.7797C21.5577 15.7797 23.6299 15.7847 25.7038 15.7781C26.8643 15.7732 27.5649 15.1574 27.5616 14.1737C27.5583 13.2294 26.8676 12.5709 25.7709 12.5676C21.597 12.5512 17.4231 12.5512 13.2508 12.5676C12.1247 12.5726 11.3832 13.2803 11.4192 14.2262C11.4536 15.159 12.1722 15.7732 13.2639 15.7781C15.3378 15.7863 17.41 15.7797 19.4839 15.7797ZM19.4937 28.5757C21.5888 28.5757 23.6856 28.5789 25.7807 28.5757C26.8709 28.5724 27.5567 27.9549 27.5616 26.9926C27.5649 26.0763 26.8889 25.3833 25.8724 25.3783C21.6265 25.3603 17.3806 25.3619 13.1346 25.38C12.1247 25.3849 11.4176 26.091 11.4176 26.9811C11.4176 27.9188 12.1394 28.5707 13.2067 28.574C15.3018 28.5806 17.3986 28.5757 19.4937 28.5757ZM8.22089 22.1744C9.10314 22.1744 9.85116 21.4486 9.85608 20.5848C9.86262 19.7374 9.08513 18.9623 8.23071 18.9639C7.35337 18.9639 6.62171 19.698 6.62007 20.5749C6.62007 21.4716 7.32063 22.1711 8.22089 22.1728V22.1744ZM9.85608 14.1786C9.85771 13.323 9.09823 12.5742 8.22744 12.5726C7.34191 12.5726 6.62171 13.2918 6.62335 14.177C6.62335 15.0703 7.32882 15.7715 8.22744 15.7765C9.09823 15.7814 9.85607 15.0375 9.85771 14.177L9.85608 14.1786ZM8.22744 28.574C9.11459 28.574 9.85771 27.8498 9.85771 26.9844C9.85771 26.1321 9.09332 25.38 8.2258 25.3767C7.34355 25.375 6.62171 26.0976 6.62171 26.9844C6.62171 27.8843 7.31736 28.5724 8.22744 28.5724V28.574Z" fill="#727886"/>
</g>
<defs>
<clipPath id="clip0_27_1152">
<rect width="33" height="36" fill="white" transform="translate(0.5)"/>
</clipPath>
</defs>
</svg>
