<svg width="40" height="58" viewBox="0 0 40 58" fill="none" xmlns="http://www.w3.org/2000/svg">
<g clip-path="url(#clip0_27_1085)">
<path d="M14.3825 43V26.6415L10.2929 18.4511L29.2246 43H40V0H25.7783V12.6007L35.0603 25.089L11.6944 0H0V43H14.3825Z" fill="#E7EBF3"/>
</g>
<path d="M7.90088 49V57H6.26025L3.07666 52.3828H3.02588V57H1.09229V49H2.75635L5.90479 53.6094H5.97119V49H7.90088ZM16.6675 53C16.6675 53.8802 16.4982 54.6263 16.1597 55.2383C15.8211 55.8503 15.3628 56.3151 14.7847 56.6328C14.2091 56.9505 13.5633 57.1094 12.8472 57.1094C12.1284 57.1094 11.4813 56.9492 10.9058 56.6289C10.3302 56.3086 9.87321 55.8437 9.53467 55.2344C9.19873 54.6224 9.03076 53.8776 9.03076 53C9.03076 52.1198 9.19873 51.3737 9.53467 50.7617C9.87321 50.1497 10.3302 49.6849 10.9058 49.3672C11.4813 49.0495 12.1284 48.8906 12.8472 48.8906C13.5633 48.8906 14.2091 49.0495 14.7847 49.3672C15.3628 49.6849 15.8211 50.1497 16.1597 50.7617C16.4982 51.3737 16.6675 52.1198 16.6675 53ZM14.6909 53C14.6909 52.4792 14.6167 52.0391 14.4683 51.6797C14.3224 51.3203 14.1115 51.0482 13.8354 50.8633C13.562 50.6784 13.2326 50.5859 12.8472 50.5859C12.4644 50.5859 12.1349 50.6784 11.8589 50.8633C11.5828 51.0482 11.3706 51.3203 11.2222 51.6797C11.0763 52.0391 11.0034 52.4792 11.0034 53C11.0034 53.5208 11.0763 53.9609 11.2222 54.3203C11.3706 54.6797 11.5828 54.9518 11.8589 55.1367C12.1349 55.3216 12.4644 55.4141 12.8472 55.4141C13.2326 55.4141 13.562 55.3216 13.8354 55.1367C14.1115 54.9518 14.3224 54.6797 14.4683 54.3203C14.6167 53.9609 14.6909 53.5208 14.6909 53ZM19.1401 49L20.9292 54.8594H20.9956L22.7847 49H24.9487L22.2495 57H19.6753L16.9761 49H19.1401ZM26.3481 57H24.27L26.9692 49H29.5435L32.2427 57H30.1646L28.2856 51.0156H28.2231L26.3481 57ZM26.0708 53.8516H30.4146V55.3203H26.0708V53.8516ZM37.1812 51.3984C37.1551 51.112 37.0392 50.8893 36.8335 50.7305C36.6304 50.569 36.34 50.4883 35.9624 50.4883C35.7124 50.4883 35.5041 50.5208 35.3374 50.5859C35.1707 50.651 35.0457 50.7409 34.9624 50.8555C34.8791 50.9674 34.8361 51.0964 34.8335 51.2422C34.8283 51.362 34.8517 51.4674 34.9038 51.5586C34.9585 51.6497 35.0366 51.7305 35.1382 51.8008C35.2424 51.8685 35.3674 51.9284 35.5132 51.9805C35.659 52.0326 35.8231 52.0781 36.0054 52.1172L36.6929 52.2734C37.0887 52.3594 37.4377 52.474 37.7397 52.6172C38.0444 52.7604 38.2996 52.931 38.5054 53.1289C38.7137 53.3268 38.8713 53.5547 38.978 53.8125C39.0848 54.0703 39.1395 54.3594 39.1421 54.6797C39.1395 55.1849 39.0119 55.6185 38.7593 55.9805C38.5067 56.3424 38.1434 56.6198 37.6694 56.8125C37.1981 57.0052 36.6291 57.1016 35.9624 57.1016C35.2931 57.1016 34.7098 57.0013 34.2124 56.8008C33.715 56.6003 33.3283 56.2956 33.0522 55.8867C32.7762 55.4779 32.6343 54.9609 32.6265 54.3359H34.478C34.4937 54.5938 34.5627 54.8086 34.6851 54.9805C34.8075 55.1523 34.9754 55.2826 35.189 55.3711C35.4051 55.4596 35.6551 55.5039 35.939 55.5039C36.1994 55.5039 36.4207 55.4687 36.603 55.3984C36.7879 55.3281 36.9299 55.2305 37.0288 55.1055C37.1278 54.9805 37.1785 54.8372 37.1812 54.6758C37.1785 54.5247 37.1317 54.3958 37.0405 54.2891C36.9494 54.1797 36.8088 54.0859 36.6187 54.0078C36.4312 53.9271 36.1916 53.8529 35.8999 53.7852L35.064 53.5898C34.3713 53.431 33.8257 53.1745 33.4272 52.8203C33.0288 52.4635 32.8309 51.9818 32.8335 51.375C32.8309 50.8802 32.9637 50.4466 33.2319 50.0742C33.5002 49.7018 33.8713 49.4115 34.3452 49.2031C34.8192 48.9948 35.3595 48.8906 35.9663 48.8906C36.5861 48.8906 37.1239 48.9961 37.5796 49.207C38.0379 49.4154 38.3934 49.7083 38.646 50.0859C38.8986 50.4635 39.0275 50.901 39.0327 51.3984H37.1812Z" fill="#E7EBF3"/>
<defs>
<clipPath id="clip0_27_1085">
<rect width="40" height="43" fill="white"/>
</clipPath>
</defs>
</svg>
