<svg width="56" height="56" viewBox="0 0 56 56" fill="none" xmlns="http://www.w3.org/2000/svg">
<g clip-path="url(#clip0_27_1113)">
<path d="M28.1356 56C12.6397 56.0511 0.10024 43.5949 -1.30882e-05 28.1465C-0.0983001 13.0146 11.9458 0.174995 27.5223 2.58867e-05C43.3563 -0.176909 55.998 12.3127 56 27.8752C56.002 43.4022 43.5706 55.9489 28.1356 55.9981V56ZM27.9607 51.5963C40.8776 51.6474 51.5004 41.1257 51.5948 28.1897C51.6891 15.1929 41.1547 4.42537 28.2791 4.35853C15.1028 4.28972 4.43863 14.8095 4.39342 27.9224C4.3482 40.9448 14.9003 51.5452 27.9607 51.5963Z" fill="#FDCF00"/>
<path d="M28.0019 49.4338C16.0974 49.4259 6.5026 39.838 6.51833 27.9637C6.53406 16.111 16.1976 6.4798 28.0471 6.50732C39.9949 6.53485 49.4678 16.1601 49.4442 28.2487C49.4206 39.9186 39.7845 49.4397 28.0039 49.4318L28.0019 49.4338Z" fill="#FDCF00"/>
<path d="M24.5639 41.4225V31.2075L22.0615 26.094L33.6338 41.4225H40.2308V14.5775H31.5265V22.4452L37.2075 30.2441L22.9146 14.5775H15.7692V41.4225H24.5639Z" fill="#121A30"/>
</g>
<defs>
<clipPath id="clip0_27_1113">
<rect width="56" height="56" fill="white"/>
</clipPath>
</defs>
</svg>
