<svg width="24" height="24" viewBox="0 0 24 24" fill="none" xmlns="http://www.w3.org/2000/svg">
<g clip-path="url(#clip0_31_237)">
<path d="M12.0581 24C5.41703 24.0219 0.0429773 18.6835 1.18294e-05 12.0628C-0.0421112 5.57767 5.11964 0.0749892 11.7953 2.37499e-06C18.5813 -0.075827 23.9992 5.27688 24 11.9465C24.0009 18.601 18.6731 23.9781 12.0581 23.9992V24ZM11.9832 22.1127C17.519 22.1346 22.0716 17.6253 22.1121 12.0813C22.1525 6.51122 17.6378 1.89658 12.1196 1.86793C6.47263 1.83844 1.90229 6.34692 1.88291 11.9667C1.86353 17.5478 6.38586 22.0908 11.9832 22.1127Z" fill="#FDCF00"/>
<path d="M10.5275 17.7525V13.3746L9.45502 11.1831L14.4146 17.7525H17.2419V6.2475H13.5115V9.61938L15.9462 12.9618L9.82064 6.2475H6.7583V17.7525H10.5275Z" fill="#FDCF00"/>
</g>
<defs>
<clipPath id="clip0_31_237">
<rect width="24" height="24" fill="white"/>
</clipPath>
</defs>
</svg>
